<svg width="34" height="33" viewBox="0 0 34 33" fill="none" xmlns="http://www.w3.org/2000/svg">
<rect width="34" height="33" rx="16.5" fill="#656ED3"/>
<path d="M9 21.6671V25H12.3329L22.1627 15.1702L18.8298 11.8373L9 21.6671ZM24.7401 12.5928C24.8225 12.5106 24.8878 12.4129 24.9324 12.3054C24.977 12.1979 25 12.0826 25 11.9662C25 11.8498 24.977 11.7346 24.9324 11.627C24.8878 11.5195 24.8225 11.4219 24.7401 11.3396L22.6604 9.25991C22.5781 9.17752 22.4805 9.11216 22.373 9.06756C22.2654 9.02296 22.1502 9 22.0338 9C21.9174 9 21.8021 9.02296 21.6946 9.06756C21.5871 9.11216 21.4894 9.17752 21.4072 9.25991L19.7808 10.8864L23.1136 14.2192L24.7401 12.5928Z" fill="white"/>
</svg>
