<svg width="28" height="28" viewBox="0 0 28 28" fill="none" xmlns="http://www.w3.org/2000/svg">
<rect width="28" height="28" rx="14" fill="#656ED3"/>
<path d="M19.95 14.7833C19.9833 14.5333 20 14.275 20 14C20 13.7333 19.9833 13.4667 19.9416 13.2167L21.6333 11.9C21.7062 11.8399 21.756 11.7564 21.7742 11.6637C21.7925 11.571 21.778 11.4749 21.7333 11.3917L20.1333 8.625C20.0862 8.54131 20.011 8.47698 19.921 8.44343C19.831 8.40987 19.732 8.40925 19.6416 8.44167L17.65 9.24167C17.2333 8.925 16.7916 8.65834 16.3 8.45834L16 6.34167C15.9852 6.24628 15.9367 6.15934 15.8633 6.09665C15.7899 6.03396 15.6965 5.99967 15.6 6H12.4C12.2 6 12.0416 6.14167 12.0083 6.34167L11.7083 8.45834C11.2166 8.65834 10.7666 8.93334 10.3583 9.24167L8.36664 8.44167C8.1833 8.375 7.97497 8.44167 7.87497 8.625L6.2833 11.3917C6.1833 11.5667 6.21664 11.7833 6.3833 11.9L8.07497 13.2167C8.0333 13.4667 7.99997 13.7417 7.99997 14C7.99997 14.2583 8.01664 14.5333 8.0583 14.7833L6.36664 16.1C6.29374 16.1601 6.24393 16.2436 6.2257 16.3363C6.20746 16.429 6.22193 16.5251 6.26664 16.6083L7.86664 19.375C7.96664 19.5583 8.17497 19.6167 8.3583 19.5583L10.35 18.7583C10.7666 19.075 11.2083 19.3417 11.7 19.5417L12 21.6583C12.0416 21.8583 12.2 22 12.4 22H15.6C15.8 22 15.9666 21.8583 15.9916 21.6583L16.2916 19.5417C16.7833 19.3417 17.2333 19.075 17.6416 18.7583L19.6333 19.5583C19.8166 19.625 20.025 19.5583 20.125 19.375L21.725 16.6083C21.825 16.425 21.7833 16.2167 21.625 16.1L19.95 14.7833ZM14 17C12.35 17 11 15.65 11 14C11 12.35 12.35 11 14 11C15.65 11 17 12.35 17 14C17 15.65 15.65 17 14 17Z" fill="white"/>
</svg>
